<?xml version="1.0" encoding="UTF-8"?>
<!-- Generator: Adobe Illustrator 16.0.0, SVG Export Plug-In . SVG Version: 6.00 Build 0)  -->
<!DOCTYPE svg PUBLIC "-//W3C//DTD SVG 1.1//EN" "http://www.w3.org/Graphics/SVG/1.1/DTD/svg11.dtd">
<svg version="1.1" id="Layer_1" xmlns="http://www.w3.org/2000/svg" xmlns:xlink="http://www.w3.org/1999/xlink" x="0px" y="0px" width="50px" height="50px" viewBox="0 0 50 50" enable-background="new 0 0 50 50" xml:space="preserve">
<g>
	<polygon fill="#F3533F" points="6.927,12.72 28.278,0.491 49.628,12.72 49.628,37.478 28.278,49.763 6.927,37.478  "/>
	<g>
		<path fill="#01505C" d="M36.186,11.611c-0.034-0.456-0.413-0.818-0.879-0.818H1.663c-0.466,0-0.844,0.361-0.878,0.818    L0.777,34.345c0,0.487,0.396,0.884,0.885,0.884h33.644c0.489,0,0.883-0.395,0.883-0.884L36.186,11.611z M34.774,30.979H2.192    V12.209h32.582V30.979z"/>
		<path fill="#01505C" d="M24.151,38.753c-1.417-0.355-1.771-1.416-1.771-2.836v-0.355h-3.895h-3.898v0.355    c0,1.417-0.353,2.479-1.77,2.836c-0.343,0.085-0.355,0.708,0,0.708h5.667h5.666C24.505,39.461,24.493,38.838,24.151,38.753z"/>
		<rect x="2.194" y="12.208" fill="#FFFFFF" width="32.581" height="18.768"/>
	</g>
	<g>
		<g>
			<rect x="18.719" y="11.536" fill="#E6FDFF" width="16.672" height="20.938"/>
			<g>
				<g>
					<g>
						<g>
							<g>
								<g>
									<g>
										<defs>
											<rect id="SVGID_1_" x="18.719" y="9.898" width="19.451" height="30.168"/>
										</defs>
										<clipPath id="SVGID_2_">
											<use xlink:href="#SVGID_1_" overflow="visible"/>
										</clipPath>
										<g clip-path="url(#SVGID_2_)">
											<path fill="#024249" d="M36.186,11.598c-0.034-0.456-0.413-0.818-0.879-0.818H1.663c-0.466,0-0.844,0.361-0.878,0.818             L0.777,34.331c0,0.489,0.396,0.885,0.885,0.885h33.644c0.489,0,0.883-0.396,0.883-0.885L36.186,11.598z M34.774,30.965             H2.192V12.197h32.582V30.965z"/>
											<path fill="#024249" d="M24.151,38.74c-1.417-0.356-1.771-1.416-1.771-2.837v-0.355h-3.895h-3.898v0.355             c0,1.417-0.353,2.479-1.77,2.837c-0.343,0.085-0.355,0.707,0,0.707h5.667h5.666             C24.505,39.447,24.493,38.825,24.151,38.74z"/>
										</g>
									</g>
								</g>
							</g>
						</g>
					</g>
				</g>
			</g>
		</g>
	</g>
	<text transform="matrix(1 0 0 1 3.7041 18.5293)"><tspan x="0" y="0" fill="#F3533F" font-family="'MyriadPro-Regular'" font-size="6.0183">Q</tspan><tspan x="4.146" y="0" fill="#F3533F" font-family="'MyriadPro-Regular'" font-size="4.0122">&amp;</tspan><tspan x="6.574" y="0" fill="#F3533F" font-family="'MyriadPro-Regular'" font-size="6.0183">A</tspan></text>
	<g>
		<g>
			<path fill="#999999" d="M16.913,23.746c-0.314,0.209-2.871,1.741-2.871,1.741c-0.706,0.371-1.005,0.927-1.005,0.927     c-0.853,1.721-0.59,3.835-0.65,4.56h12.646c-0.061-0.725,0.203-2.839-0.649-4.56c0,0-0.299-0.557-1.006-0.927     c0,0-1.507-0.625-2.223-1.306c0,0.02-0.648-0.456-0.648-0.435"/>
			<path fill="#FFFFFF" d="M20.216,23.639c0,0,0.847,0.547,0.225,2.553c-0.622,2.007-1.713,4.064-1.713,4.064     s-2.093-3.876-1.954-5.194c0.139-1.317,0.368-1.317,0.368-1.317l1.094,0.844l0.944,0.049L20.216,23.639z"/>
			<g>
				<path id="SVGID_237_" fill="#E0B990" d="M17.23,22.793h2.986l-0.201,1.913h-2.621L17.23,22.793z"/>
			</g>
			<g>
				<path id="SVGID_236_" fill="#00BCDB" d="M18.281,24.638h0.898c0,0,0.301,0.392-0.159,0.898l0.74,3.378l-1.058,1.375"/>
			</g>
			<g>
				<path id="SVGID_235_" fill="#00BCDB" d="M19.133,24.59h-0.9c0,0-0.301,0.392,0.16,0.899l-0.741,3.379l1.048,1.422"/>
			</g>
			<g>
				<path id="SVGID_234_" fill="#212121" d="M20.348,23.639c0,0,0.283,2.134-1.639,6.659c0,0,2.379-2.71,2.8-3.488      c0.423-0.78-0.937-0.344-0.792-0.792c0.146-0.451,1.03-0.198,1.004-0.688C21.696,24.841,20.519,23.93,20.348,23.639z"/>
			</g>
			<g>
				<path id="SVGID_233_" fill="#212121" d="M17.072,23.639c0,0-0.283,2.134,1.639,6.659c0,0-2.378-2.71-2.801-3.488      c-0.423-0.78,0.938-0.344,0.793-0.792c-0.145-0.451-1.03-0.198-1.003-0.688C15.724,24.841,16.9,23.93,17.072,23.639z"/>
			</g>
			<g>
				<path id="SVGID_232_" fill="#212121" d="M19.079,24.538c0,0,0.459,0.599,0.742,0.846c0,0,0.44-1.577,0.686-1.637l-0.369-0.318      L19.079,24.538z"/>
			</g>
			<g>
				<path id="SVGID_231_" fill="#212121" d="M18.339,24.538c0,0-0.458,0.599-0.739,0.846c0,0-0.441-1.577-0.688-1.637l0.37-0.318      L18.339,24.538z"/>
			</g>
			<g>
				<path id="SVGID_230_" fill="#F9E3C2" d="M18.709,17.192c1.344,0,2.432,1.431,2.432,3.197c0,1.765-1.088,3.197-2.432,3.197      c-1.341,0-2.431-1.432-2.431-3.197C16.278,18.623,17.368,17.192,18.709,17.192z"/>
			</g>
			<g>
				<path id="SVGID_229_" fill="#00272B" d="M16.332,20.997c0,0,0.007-2.687,0.899-2.747c0.911-0.063,0.183,1.019,1.902,1.003      c1.506-0.013,2.079,0.381,1.955,1.744c0,0,0.472-1.042,0.105-2.325c-0.403-1.404-2.206-2.417-4.016-1.161      C17.177,17.509,15.235,17.694,16.332,20.997z"/>
			</g>
		</g>
		<g>
			<defs>
				<rect id="SVGID_3_" x="18.71" y="16.491" width="6.716" height="14.914"/>
			</defs>
			<clipPath id="SVGID_4_">
				<use xlink:href="#SVGID_3_" overflow="visible"/>
			</clipPath>
			<g clip-path="url(#SVGID_4_)">
				<path fill="#727272" d="M16.913,23.746c-0.314,0.209-2.871,1.741-2.871,1.741c-0.706,0.371-1.005,0.927-1.005,0.927      c-0.853,1.721-0.59,3.835-0.65,4.56h12.646c-0.061-0.725,0.203-2.839-0.649-4.56c0,0-0.299-0.557-1.006-0.927      c0,0-1.507-0.625-2.223-1.306c0,0.02-0.648-0.456-0.648-0.435"/>
				<path fill="#FFFFFF" d="M20.216,23.639c0,0,0.847,0.547,0.225,2.553c-0.622,2.007-1.713,4.064-1.713,4.064      s-2.093-3.876-1.954-5.194c0.139-1.317,0.368-1.317,0.368-1.317l1.094,0.844l0.944,0.049L20.216,23.639z"/>
				<g>
					<path id="SVGID_226_" fill="#AD825A" d="M17.23,22.793h2.986l-0.201,1.913h-2.621L17.23,22.793z"/>
				</g>
				<g>
					<path id="SVGID_225_" fill="#02798A" d="M18.281,24.638h0.898c0,0,0.301,0.392-0.159,0.898l0.74,3.378l-1.058,1.375"/>
				</g>
				<g>
					<path id="SVGID_224_" fill="#02798A" d="M19.133,24.59h-0.9c0,0-0.301,0.392,0.16,0.899l-0.741,3.379l1.048,1.422"/>
				</g>
				<g>
					<path id="SVGID_223_" d="M20.348,23.639c0,0,0.283,2.134-1.639,6.659c0,0,2.379-2.71,2.8-3.488       c0.423-0.78-0.937-0.344-0.792-0.792c0.146-0.451,1.03-0.198,1.004-0.688C21.696,24.841,20.519,23.93,20.348,23.639z"/>
				</g>
				<g>
					<path id="SVGID_220_" fill="#212121" d="M17.072,23.639c0,0-0.283,2.134,1.639,6.659c0,0-2.378-2.71-2.801-3.488       c-0.423-0.78,0.938-0.344,0.793-0.792c-0.145-0.451-1.03-0.198-1.003-0.688C15.724,24.841,16.9,23.93,17.072,23.639z"/>
				</g>
				<g>
					<path id="SVGID_219_" d="M19.079,24.538c0,0,0.459,0.599,0.742,0.846c0,0,0.44-1.577,0.686-1.637l-0.369-0.318L19.079,24.538z"/>
				</g>
				<g>
					<path id="SVGID_218_" fill="#212121" d="M18.339,24.538c0,0-0.458,0.599-0.739,0.846c0,0-0.441-1.577-0.688-1.637l0.37-0.318       L18.339,24.538z"/>
				</g>
				<g>
					<path id="SVGID_215_" fill="#F2D0A2" d="M18.709,17.192c1.344,0,2.432,1.431,2.432,3.197c0,1.765-1.088,3.197-2.432,3.197       c-1.341,0-2.431-1.432-2.431-3.197C16.278,18.623,17.368,17.192,18.709,17.192z"/>
				</g>
				<g>
					<path id="SVGID_214_" fill="#001615" d="M16.332,20.997c0,0,0.007-2.687,0.899-2.747c0.911-0.063,0.183,1.019,1.902,1.003       c1.506-0.013,2.079,0.381,1.955,1.744c0,0,0.472-1.042,0.105-2.325c-0.403-1.404-2.206-2.417-4.016-1.161       C17.177,17.509,15.235,17.694,16.332,20.997z"/>
				</g>
			</g>
		</g>
	</g>
	<g>
		<g>
			<rect x="30.276" y="33.307" fill="#F9E3C2" width="8.749" height="4.622"/>
			<path fill="#FBC921" d="M41.435,38.955c-1.178-1.438-1.962-1.765-1.962-1.765s-8.041,0-9.413,0c-1.374,0-2.812,2.811-4.773,3.661     c-1.395,0.604-5.896,1.725-8.381,2.367l0.756,0.509l10.617,6.035l10.509-6.035l5.472-3.16     C42.869,39.944,41.792,39.394,41.435,38.955z"/>
			<path id="SVGID_228_" fill="#00272B" d="M34.91,15.451c4.363,0,7.9,4.654,7.9,10.392c0,5.738-3.537,10.39-7.9,10.39     c-4.361,0-7.9-4.651-7.9-10.39C27.01,20.105,30.549,15.451,34.91,15.451z"/>
			<path id="SVGID_227_" fill="#00272B" d="M27.183,27.817c0,0,0.02-8.735,2.919-8.93c2.961-0.201,0.599,3.312,6.185,3.264     c4.894-0.044,6.757,1.237,6.354,5.666c0,0,1.536-3.391,0.342-7.556c-1.308-4.567-7.168-7.857-13.052-3.778     C29.93,16.483,23.619,17.085,27.183,27.817z"/>
		</g>
		<g>
			<defs>
				<rect id="SVGID_5_" x="34.651" y="12.817" width="21.599" height="43.536"/>
			</defs>
			<clipPath id="SVGID_6_">
				<use xlink:href="#SVGID_5_" overflow="visible"/>
			</clipPath>
			<g clip-path="url(#SVGID_6_)">
				<rect x="30.276" y="33.307" fill="#F9E3C2" width="8.749" height="4.622"/>
				<path fill="#F79326" d="M41.435,38.955c-1.178-1.438-1.962-1.765-1.962-1.765s-8.041,0-9.413,0      c-1.374,0-2.812,2.811-4.773,3.661c-1.395,0.604-5.896,1.804-8.381,2.445l0.756,0.431l10.563,6.016l10.563-6.016l5.472-3.16      C42.869,39.944,41.792,39.394,41.435,38.955z"/>
				<path id="SVGID_217_" fill="#002121" d="M34.91,15.451c4.363,0,7.9,4.654,7.9,10.392c0,5.738-3.537,10.39-7.9,10.39      c-4.361,0-7.9-4.651-7.9-10.39C27.01,20.105,30.549,15.451,34.91,15.451z"/>
				<path id="SVGID_216_" fill="#002121" d="M27.183,27.817c0,0,0.02-8.735,2.919-8.93c2.961-0.201,0.599,3.312,6.185,3.264      c4.894-0.044,6.757,1.237,6.354,5.666c0,0,1.536-3.391,0.342-7.556c-1.308-4.567-7.168-7.857-13.052-3.778      C29.93,16.483,23.619,17.085,27.183,27.817z"/>
			</g>
		</g>
	</g>
</g>
</svg>