<?xml version="1.0" encoding="UTF-8"?>
<!-- Generator: Adobe Illustrator 16.0.0, SVG Export Plug-In . SVG Version: 6.00 Build 0)  -->
<!DOCTYPE svg PUBLIC "-//W3C//DTD SVG 1.1//EN" "http://www.w3.org/Graphics/SVG/1.1/DTD/svg11.dtd">
<svg version="1.1" id="Layer_1" xmlns="http://www.w3.org/2000/svg" xmlns:xlink="http://www.w3.org/1999/xlink" x="0px" y="0px" width="50px" height="50px" viewBox="0 0 50 50" enable-background="new 0 0 50 50" xml:space="preserve">
<g>
	<polygon fill="#00BCDB" points="4.702,15.221 24.56,3.743 44.418,15.221 44.418,38.457 24.56,49.987 4.702,38.457  "/>
	<path fill="#01505C" d="M38.415,19.905h-1.603h-5.095h-2.97h-8.486v-8.558c0-3.181,2.565-5.758,5.728-5.758   c3.164,0,5.728,2.578,5.728,5.758v2.427c0.462,0.285,0.771,0.792,0.771,1.376c0,0.583-0.311,1.093-0.771,1.376v0.746   c0,0.012-0.002,0.026-0.002,0.037c0,0.012,0.002,0.025,0.002,0.038v0.14h0.008c0.088,0.916,0.857,1.633,1.793,1.633h1.523   c0.996,0,1.802-0.811,1.802-1.812c0-0.113-0.01-0.222-0.031-0.33V16.46c-0.407-0.292-0.675-0.77-0.675-1.312   s0.268-1.02,0.675-1.313v-2.813c0-6.009-4.845-10.88-10.822-10.88c-5.978,0-10.823,4.871-10.823,10.88v8.879h-1.604   c-0.885,0-1.603,0.723-1.603,1.612v16.28c0,0.891,0.717,1.612,1.603,1.612h24.851c0.887,0,1.604-0.722,1.604-1.612V21.515   C40.02,20.626,39.302,19.905,38.415,19.905z"/>
	<g>
		<g>
			<g>
				<g>
					<g>
						<g>
							<g>
								<g>
									<g>
										<g>
											<defs>
												<rect id="SVGID_1_" x="25.805" y="-0.862" width="16.074" height="40.867"/>
											</defs>
											<clipPath id="SVGID_2_">
												<use xlink:href="#SVGID_1_" overflow="visible"/>
											</clipPath>
											<path clip-path="url(#SVGID_2_)" fill="#023E44" d="M38.415,19.905h-1.603h-5.095h-2.97h-8.486v-8.558             c0-3.181,2.565-5.758,5.728-5.758c3.164,0,5.728,2.578,5.728,5.758v2.427c0.462,0.285,0.771,0.792,0.771,1.376             c0,0.583-0.311,1.093-0.771,1.376v0.746c0,0.012-0.002,0.026-0.002,0.037c0,0.012,0.002,0.025,0.002,0.038v0.14h0.008             c0.088,0.916,0.857,1.633,1.793,1.633h1.523c0.996,0,1.802-0.811,1.802-1.812c0-0.113-0.01-0.222-0.031-0.33V16.46             c-0.407-0.292-0.675-0.77-0.675-1.312s0.268-1.02,0.675-1.313v-2.813c0-6.009-4.845-10.88-10.822-10.88             c-5.978,0-10.823,4.871-10.823,10.88v8.879h-1.604c-0.885,0-1.603,0.723-1.603,1.612v16.28             c0,0.891,0.717,1.612,1.603,1.612h24.851c0.887,0,1.604-0.722,1.604-1.612V21.515             C40.02,20.626,39.302,19.905,38.415,19.905z"/>
										</g>
									</g>
								</g>
							</g>
						</g>
					</g>
				</g>
			</g>
		</g>
	</g>
	<path fill="#FBC921" d="M30.463,29.836l-7.151-4.902c-0.589-0.393-1.053-0.119-1.053,0.62v9.08c0,0.736,0.487,1.047,1.084,0.688   l7.076-4.128C31.004,30.824,31.024,30.218,30.463,29.836z"/>
</g>
</svg>