<?xml version="1.0" encoding="UTF-8"?>
<!-- Generator: Adobe Illustrator 16.0.0, SVG Export Plug-In . SVG Version: 6.00 Build 0)  -->
<!DOCTYPE svg PUBLIC "-//W3C//DTD SVG 1.1//EN" "http://www.w3.org/Graphics/SVG/1.1/DTD/svg11.dtd">
<svg version="1.1" id="Layer_1" xmlns="http://www.w3.org/2000/svg" xmlns:xlink="http://www.w3.org/1999/xlink" x="0px" y="0px" width="50px" height="50px" viewBox="0 0 50 50" enable-background="new 0 0 50 50" xml:space="preserve">
<g>
	<polygon fill="#FBC921" points="4.035,12.615 25.382,0.338 46.729,12.615 46.729,37.466 25.382,49.798 4.035,37.466  "/>
	<rect x="36.277" y="0.921" fill="#03A2B9" width="6.263" height="19.818"/>
	<rect x="39.409" y="0.921" fill="#0C8C96" width="3.134" height="19.818"/>
	<g>
		<rect x="36.781" y="3.76" fill="#79281F" width="5.046" height="0.229"/>
		<rect x="36.781" y="4.323" fill="#79281F" width="5.046" height="0.229"/>
	</g>
	<g>
		<rect x="36.781" y="17.173" fill="#79281F" width="5.046" height="0.229"/>
		<rect x="36.781" y="17.737" fill="#79281F" width="5.046" height="0.229"/>
	</g>
	<rect x="20.639" y="6.894" fill="#01505C" width="2.084" height="13.845"/>
	<rect x="21.681" y="6.894" fill="#02373D" width="1.042" height="13.845"/>
	<g>
		<rect x="20.806" y="8.876" fill="#79281F" width="1.676" height="0.16"/>
		<rect x="20.806" y="9.27" fill="#79281F" width="1.676" height="0.161"/>
	</g>
	<g>
		<rect x="20.806" y="18.248" fill="#79281F" width="1.676" height="0.161"/>
		<rect x="20.806" y="18.642" fill="#79281F" width="1.676" height="0.16"/>
	</g>
	<rect x="14.034" y="6.143" fill="#F3533F" width="4.181" height="14.596"/>
	<rect x="16.125" y="6.143" fill="#CC3A2F" width="2.09" height="14.596"/>
	<g>
		<rect x="14.371" y="8.233" fill="#79281F" width="3.366" height="0.169"/>
		<rect x="14.371" y="8.648" fill="#79281F" width="3.366" height="0.169"/>
	</g>
	<g>
		<rect x="14.371" y="18.113" fill="#79281F" width="3.366" height="0.169"/>
		<rect x="14.371" y="18.528" fill="#79281F" width="3.366" height="0.168"/>
	</g>
	<rect x="25.305" y="4.323" fill="#FFFFFF" width="9.186" height="16.729"/>
	<rect x="29.9" y="4.323" fill="#E8E8E8" width="4.594" height="16.729"/>
	<g>
		<rect x="26.797" y="7.55" fill="#01505C" width="6.207" height="0.229"/>
		<rect x="26.797" y="8.113" fill="#01505C" width="6.207" height="0.229"/>
	</g>
	<g>
		<rect x="26.797" y="18.121" fill="#01505C" width="6.207" height="0.229"/>
		<rect x="26.797" y="18.685" fill="#01505C" width="6.207" height="0.229"/>
	</g>
	<rect x="38.164" y="23.39" fill="#FFFFFF" width="2.146" height="15.953"/>
	<rect x="39.202" y="23.39" fill="#E8E8E8" width="1.108" height="15.953"/>
	<g>
		<rect x="38.338" y="25.675" fill="#79281F" width="1.728" height="0.184"/>
		<rect x="38.338" y="26.128" fill="#79281F" width="1.728" height="0.185"/>
	</g>
	<g>
		<rect x="38.338" y="36.473" fill="#79281F" width="1.728" height="0.186"/>
		<rect x="38.338" y="36.927" fill="#79281F" width="1.728" height="0.185"/>
	</g>
	<rect x="20.876" y="31.374" fill="#F3533F" width="11.147" height="4.391"/>
	<rect x="20.876" y="33.495" fill="#DB3F33" width="11.147" height="2.269"/>
	<g>
		<rect x="30.296" y="31.727" fill="#79281F" width="0.13" height="3.537"/>
		<rect x="29.979" y="31.727" fill="#79281F" width="0.13" height="3.537"/>
	</g>
	<g>
		<rect x="22.753" y="31.727" fill="#79281F" width="0.129" height="3.537"/>
		<rect x="22.436" y="31.727" fill="#79281F" width="0.129" height="3.537"/>
	</g>
	<rect x="12.335" y="24.236" fill="#03A2B9" width="6.67" height="15.106"/>
	<rect x="15.672" y="24.236" fill="#0C8C96" width="3.337" height="15.106"/>
	<g>
		<rect x="12.873" y="26.399" fill="#79281F" width="5.374" height="0.175"/>
		<rect x="12.873" y="26.829" fill="#79281F" width="5.374" height="0.175"/>
	</g>
	<g>
		<rect x="12.873" y="36.626" fill="#79281F" width="5.374" height="0.174"/>
		<rect x="12.873" y="37.056" fill="#79281F" width="5.374" height="0.175"/>
	</g>
	<rect x="23.62" y="36.135" fill="#00BCDB" width="13.467" height="3.039"/>
	<rect x="23.62" y="37.654" fill="#0C8C96" width="13.467" height="1.52"/>
	<g>
		<rect x="34.305" y="36.628" fill="#01505C" width="0.184" height="2.054"/>
		<rect x="33.851" y="36.628" fill="#01505C" width="0.185" height="2.054"/>
	</g>
	<g>
		<rect x="25.794" y="36.628" fill="#01505C" width="0.185" height="2.054"/>
		<rect x="25.341" y="36.628" fill="#01505C" width="0.185" height="2.054"/>
	</g>
	<g>
		<g>
			<g>
				<path fill="#01505C" d="M16.068,37.477c0.879,1.572,1.229,3.282,0.954,5.1c-0.513,3.489-3.561,6.312-7.088,6.499      c-4.868,0.229-8.688-3.951-7.993-8.782c0.754-5.391,6.685-8.265,11.384-5.448c0.39,0.227,0.502,0.173,0.787-0.104      c4.209-4.181,12.996-12.789,13.027-12.815c0.717,0.734,1.323,1.412,2.158,2.201c-0.938,0.861-1.809,1.774-2.769,2.717      c1.162,1.129,2.129,2.229,3.319,3.389l-2.173,2.131c-1.11-1.129-2.189-2.232-3.352-3.418l-0.961,0.94l1.879,1.921      c-0.787,0.775-1.299,1.272-2.091,2.047c-0.607-0.621-1.324-1.299-1.879-1.921c-1.75,1.718-3.451,3.435-5.227,5.12      C15.93,37.165,15.93,37.333,16.068,37.477z M9.474,36.735c-2.546,0.001-4.58,2.051-4.607,4.623      c-0.025,2.518,2.05,4.637,4.541,4.635c2.516,0.025,4.613-2.078,4.635-4.597C14.067,38.88,11.993,36.762,9.474,36.735z"/>
			</g>
		</g>
		<g>
			<g>
				<g>
					<g>
						<g>
							<g>
								<g>
									<g>
										<g>
											<g>
												<defs>
													
														<rect id="SVGID_1_" x="14.64" y="20.66" transform="matrix(-0.7012 -0.7129 0.7129 -0.7012 6.8779 80.2035)" width="11.208" height="36.001"/>
												</defs>
												<clipPath id="SVGID_2_">
													<use xlink:href="#SVGID_1_" overflow="visible"/>
												</clipPath>
												<g clip-path="url(#SVGID_2_)">
													<g>
														<path fill="#01393F" d="M16.068,37.477c0.879,1.572,1.229,3.282,0.954,5.1c-0.513,3.489-3.561,6.312-7.088,6.499                c-4.868,0.229-8.688-3.951-7.993-8.782c0.754-5.391,6.685-8.265,11.384-5.448c0.39,0.227,0.502,0.173,0.787-0.104                c4.209-4.181,12.996-12.789,13.027-12.815c0.717,0.734,1.323,1.412,2.158,2.201c-0.938,0.861-1.809,1.774-2.769,2.717                c1.162,1.129,2.129,2.229,3.319,3.389l-2.173,2.131c-1.11-1.129-2.189-2.232-3.352-3.418l-0.961,0.94l1.88,1.921                c-0.788,0.775-1.3,1.272-2.092,2.047c-0.607-0.621-1.324-1.299-1.879-1.921c-1.75,1.718-3.451,3.435-5.227,5.12                C15.93,37.165,15.93,37.333,16.068,37.477z M9.474,36.735c-2.544,0.001-4.58,2.051-4.607,4.623                c-0.025,2.518,2.05,4.637,4.541,4.635c2.516,0.025,4.613-2.078,4.635-4.597C14.067,38.88,11.993,36.762,9.474,36.735z                "/>
													</g>
												</g>
											</g>
										</g>
									</g>
								</g>
							</g>
						</g>
					</g>
				</g>
			</g>
		</g>
	</g>
</g>
</svg>