<svg id="Layer_2" data-name="Layer 2" xmlns="http://www.w3.org/2000/svg" viewBox="0 0 709.03 675.18"><defs><style>.cls-1,.cls-2,.cls-3,.cls-4,.cls-5{fill:none;stroke-miterlimit:10;}.cls-1{stroke:#435ca9;}.cls-1,.cls-3,.cls-5{stroke-width:25px;}.cls-2{stroke:blue;}.cls-2,.cls-4{stroke-width:27px;}.cls-3{stroke:#38c5f3;}.cls-4{stroke:#231f20;}.cls-5{stroke:#3d71b8;}.cls-6{fill:#262262;}</style></defs><title>BDI HUB LOGO (DULL COLOR)</title><path class="cls-1" d="M320.43,431.1c81.14-33.92,178.21,2.77,222.29,86.56,46.49,88.35,16.47,195.58-67,239.53s-188.9,8-235.39-80.39a190.25,190.25,0,0,1-18.47-52.38q-0.78-4-1.38-8.06" transform="translate(-57.86 -311.14)"/><path class="cls-2" d="M359.09,419.45" transform="translate(-57.86 -311.14)"/><path class="cls-2" d="M347.7,421.86" transform="translate(-57.86 -311.14)"/><path class="cls-2" d="M347.7,421.86" transform="translate(-57.86 -311.14)"/><path class="cls-2" d="M345,422.57" transform="translate(-57.86 -311.14)"/><path class="cls-2" d="M241.68,512.3" transform="translate(-57.86 -311.14)"/><path class="cls-2" d="M236.51,523.48" transform="translate(-57.86 -311.14)"/><path class="cls-2" d="M232.27,534.47" transform="translate(-57.86 -311.14)"/><path class="cls-3" d="M616,619.07a224.65,224.65,0,0,1-15.42,62.43C554,796.45,423,851.89,308.09,805.32S137.7,627.8,184.27,512.84,361.78,342.45,476.74,389" transform="translate(-57.86 -311.14)"/><path class="cls-4" d="M445,378" transform="translate(-57.86 -311.14)"/><path class="cls-4" d="M310.76,856.54" transform="translate(-57.86 -311.14)"/><path class="cls-5" d="M137.46,695.17a272.87,272.87,0,0,1-17-69.81c-16.12-149.63,92.11-284,241.74-300.13s284,92.11,300.13,241.74S570.24,851,420.61,867.11a272.42,272.42,0,0,1-81.49-3.42" transform="translate(-57.86 -311.14)"/><path class="cls-6" d="M342.26,515.44c16.9,0,26,9.53,26,27.2v2c0,12-3.53,19.05-12.14,22v0.31c10.14,3.07,14.44,11.06,14.44,25.2v3.69c0,17.67-9.53,27.2-27,27.2h-24V515.44h22.74Zm-6.45,44.41h5.07c7.84,0,11.06-4,11.06-13.06v-3.53c0-8.76-3.23-12.75-10.29-12.75h-5.84v29.35Zm0,48.09h7.07c7.84,0,11.37-4.15,11.37-13.21v-6c0-9.53-3.53-13.83-12.14-13.83h-6.3v33Z" transform="translate(-57.86 -311.14)"/><path class="cls-6" d="M402.8,515.44c17.52,0,27,9.53,27,27.2V595.8c0,17.67-9.53,27.2-27,27.2H379.44V515.44H402.8Zm-7.07,92.5h6.45c7.84,0,11.37-4.15,11.37-13.21v-51c0-9.07-3.53-13.21-11.37-13.21h-6.45v77.44Z" transform="translate(-57.86 -311.14)"/><path class="cls-6" d="M442.13,623V515.44h16.29V623H442.13Z" transform="translate(-57.86 -311.14)"/><path class="cls-6" d="M344.48,654.74V634.08h15.06v46H344.48V659.29h-9.15v20.78H320.27v-46h15.06v20.66h9.15Z" transform="translate(-57.86 -311.14)"/><path class="cls-6" d="M409.67,634.08v41.69q0,2-3.53,3.16a31.73,31.73,0,0,1-9.44,1.14H383.94a31.52,31.52,0,0,1-9.53-1.14Q371,677.8,371,675.78V634.08H386v41.5h8.58v-41.5h15.06Z" transform="translate(-57.86 -311.14)"/><path class="cls-6" d="M460.19,653.61a3.16,3.16,0,0,1-.19,1,2.24,2.24,0,0,1-1,1,9.13,9.13,0,0,1-2.48.88,25.71,25.71,0,0,1-4.48.5,25.69,25.69,0,0,1,4.48.51,9.17,9.17,0,0,1,2.48.88,2.2,2.2,0,0,1,1,1.07,3.29,3.29,0,0,1,.19,1V676q0,1.64-3.62,2.84a27.36,27.36,0,0,1-8.58,1.2H421.11v-46H448a27.39,27.39,0,0,1,8.58,1.2q3.62,1.2,3.62,2.91v15.41Zm-15.06,1.14V638.57h-9v16.17h9Zm-9,4.55v16.3h9v-16.3h-9Z" transform="translate(-57.86 -311.14)"/><path class="cls-6" d="M70.7,924.7c9.55,0,14.67,5.38,14.67,15.36v1.13c0,6.77-2,10.76-6.86,12.41v0.17c5.73,1.74,8.16,6.25,8.16,14.23v2.08c0,10-5.38,15.36-15.28,15.36H57.86V924.7H70.7Zm-3.65,25.08h2.86c4.43,0,6.25-2.26,6.25-7.38v-2c0-4.95-1.82-7.2-5.81-7.2h-3.3v16.58Zm0,27.17h4c4.43,0,6.42-2.34,6.42-7.46V966.1c0-5.38-2-7.81-6.86-7.81H67.06v18.66Z" transform="translate(-57.86 -311.14)"/><path class="cls-6" d="M94.05,985.45V924.7h9.2v60.75h-9.2Z" transform="translate(-57.86 -311.14)"/><path class="cls-6" d="M141,938.41v4.17l-8.85.43v-3.65c0-4.86-1.82-7-5.38-7s-5.38,2.17-5.38,6.16v33.15c0,4,1.74,6.16,5.29,6.16s5.29-2.17,5.29-7V960.37h-5.21v-8.51H141v19.88c0,9.2-5.29,14.58-14.49,14.58s-14.32-5.38-14.32-14.58V938.41c0-9.2,5.21-14.58,14.32-14.58S141,929.21,141,938.41Z" transform="translate(-57.86 -311.14)"/><path class="cls-6" d="M179.37,924.7c9.89,0,15.28,5.38,15.28,15.36v30c0,10-5.38,15.36-15.28,15.36H166.18V924.7h13.19Zm-4,52.25H179c4.43,0,6.42-2.34,6.42-7.46V940.67c0-5.12-2-7.46-6.42-7.46h-3.65v43.74Z" transform="translate(-57.86 -311.14)"/><path class="cls-6" d="M223.2,985.45l-2-13.8H211.05l-2,13.8h-9.2l10.5-60.75h11.72l10.5,60.75H223.2Zm-10.94-22.13H220l-3.73-25.6H216Z" transform="translate(-57.86 -311.14)"/><path class="cls-6" d="M251.06,933.38v52.08h-9.2V933.38h-9.81V924.7h28.82v8.68h-9.81Z" transform="translate(-57.86 -311.14)"/><path class="cls-6" d="M283.7,985.45l-2-13.8H271.55l-2,13.8h-9.2l10.5-60.75h11.72l10.5,60.75H283.7Zm-10.94-22.13h7.72l-3.73-25.6H276.5Z" transform="translate(-57.86 -311.14)"/><path class="cls-6" d="M315.29,985.45V924.7h9.2v60.75h-9.2Z" transform="translate(-57.86 -311.14)"/><path class="cls-6" d="M355.3,985.45l-12.06-40.27h-0.17v40.27h-8.68V924.7h10.24l10.85,36.19h0.17V924.7h8.68v60.75h-9Z" transform="translate(-57.86 -311.14)"/><path class="cls-6" d="M395.14,985.45l-12.06-40.27H382.9v40.27h-8.68V924.7h10.24l10.85,36.19h0.17V924.7h8.68v60.75h-9Z" transform="translate(-57.86 -311.14)"/><path class="cls-6" d="M442.79,939.19V971c0,9.55-5.64,15.36-14.84,15.36S413.11,980.5,413.11,971V939.19c0-9.55,5.64-15.36,14.84-15.36S442.79,929.64,442.79,939.19Zm-20.48.09v31.59c0,4.51,2,6.94,5.64,6.94s5.64-2.43,5.64-6.94V939.28c0-4.51-2-6.94-5.64-6.94S422.31,934.76,422.31,939.28Z" transform="translate(-57.86 -311.14)"/><path class="cls-6" d="M458.24,985.45L448,924.7h9.37L464.23,971h0.17l6.77-46.35h9.2l-10.24,60.75H458.24Z" transform="translate(-57.86 -311.14)"/><path class="cls-6" d="M504.94,985.45l-2-13.8H492.79l-2,13.8h-9.2l10.5-60.75h11.72l10.5,60.75h-9.37ZM494,963.32h7.72L498,937.71h-0.26Z" transform="translate(-57.86 -311.14)"/><path class="cls-6" d="M532.8,933.38v52.08h-9.2V933.38H513.8V924.7h28.81v8.68H532.8Z" transform="translate(-57.86 -311.14)"/><path class="cls-6" d="M548.43,985.45V924.7h9.2v60.75h-9.2Z" transform="translate(-57.86 -311.14)"/><path class="cls-6" d="M596.25,939.19V971c0,9.55-5.64,15.36-14.84,15.36S566.56,980.5,566.56,971V939.19c0-9.55,5.64-15.36,14.84-15.36S596.25,929.64,596.25,939.19Zm-20.48.09v31.59c0,4.51,2,6.94,5.64,6.94s5.64-2.43,5.64-6.94V939.28c0-4.51-2-6.94-5.64-6.94S575.76,934.76,575.76,939.28Z" transform="translate(-57.86 -311.14)"/><path class="cls-6" d="M626.11,985.45L614,945.18h-0.17v40.27h-8.68V924.7h10.24l10.85,36.19h0.17V924.7h8.68v60.75h-9Z" transform="translate(-57.86 -311.14)"/><path class="cls-6" d="M681.65,985.45V959H670.72v26.47h-9.2V924.7h9.2v25.6h10.94V924.7h9.2v60.75h-9.2Z" transform="translate(-57.86 -311.14)"/><path class="cls-6" d="M728.7,971.82c0,9.55-5.47,14.49-14.32,14.49-8.68,0-14.15-4.95-14.15-14.49V924.7h8.85v46.87c0,4.43,2,6.08,5.21,6.08s5.21-1.65,5.21-6.08V924.7h9.2v47.13Z" transform="translate(-57.86 -311.14)"/><path class="cls-6" d="M750.92,924.7c9.55,0,14.67,5.38,14.67,15.36v1.13c0,6.77-2,10.76-6.86,12.41v0.17c5.73,1.74,8.16,6.25,8.16,14.23v2.08c0,10-5.38,15.36-15.28,15.36H738.07V924.7h12.84Zm-3.64,25.08h2.86c4.43,0,6.25-2.26,6.25-7.38v-2c0-4.95-1.82-7.2-5.81-7.2h-3.3v16.58Zm0,27.17h4c4.43,0,6.42-2.34,6.42-7.46V966.1c0-5.38-2-7.81-6.86-7.81h-3.56v18.66Z" transform="translate(-57.86 -311.14)"/></svg>